<svg width="24" height="25" viewBox="0 0 24 25" fill="none" xmlns="http://www.w3.org/2000/svg">
<g clip-path="url(#clip0_2822_3383)">
<path d="M16.243 10.2115C16.4152 10.0393 16.6443 9.93586 16.8874 9.92058C17.1304 9.90529 17.3706 9.97921 17.563 10.1285L17.657 10.2115L19.778 12.3335C20.7931 13.3497 21.3704 14.7227 21.3865 16.159C21.4025 17.5952 20.8561 18.9808 19.8639 20.0195C18.8718 21.0581 17.5127 21.6674 16.0771 21.7171C14.6416 21.7668 13.2436 21.253 12.182 20.2855L12 20.1115L9.87903 17.9905C9.69778 17.8109 9.592 17.5689 9.58335 17.3139C9.5747 17.0589 9.66383 16.8103 9.8325 16.6189C10.0012 16.4275 10.2366 16.3078 10.4907 16.2843C10.7447 16.2608 10.9981 16.3352 11.199 16.4925L11.293 16.5755L13.414 18.6975C14.0578 19.3415 14.9271 19.7093 15.8376 19.7228C16.7481 19.7363 17.628 19.3944 18.2905 18.7697C18.953 18.1451 19.346 17.2868 19.3861 16.3771C19.4261 15.4674 19.1101 14.5779 18.505 13.8975L18.364 13.7475L16.243 11.6265C16.1501 11.5336 16.0763 11.4233 16.026 11.3019C15.9756 11.1805 15.9497 11.0504 15.9497 10.919C15.9497 10.7875 15.9756 10.6574 16.026 10.536C16.0763 10.4146 16.1501 10.3043 16.243 10.2115ZM9.17003 9.50446C9.34222 9.33229 9.57132 9.22886 9.81435 9.21357C10.0574 9.19829 10.2976 9.27221 10.49 9.42146L10.585 9.50446L14.827 13.7475C15.0064 13.9274 15.1105 14.1689 15.1183 14.4228C15.126 14.6768 15.0368 14.9242 14.8688 15.1147C14.7007 15.3053 14.4665 15.4248 14.2136 15.4489C13.9606 15.473 13.708 15.3999 13.507 15.2445L13.413 15.1615L9.17003 10.9195C9.07705 10.8266 9.0033 10.7163 8.95297 10.5949C8.90265 10.4735 8.87675 10.3434 8.87675 10.212C8.87675 10.0805 8.90265 9.95042 8.95297 9.82902C9.0033 9.70763 9.07705 9.59734 9.17003 9.50446ZM4.22003 4.55446C5.22083 3.5537 6.5689 2.97725 7.98385 2.94503C9.3988 2.91281 10.7717 3.42729 11.817 4.38146L11.999 4.55546L14.12 6.67546C14.3013 6.85501 14.4071 7.09703 14.4157 7.35201C14.4244 7.60699 14.3352 7.85563 14.1666 8.04704C13.9979 8.23846 13.7624 8.35817 13.5084 8.38167C13.2544 8.40517 13.001 8.33069 12.8 8.17346L12.706 8.09046L10.585 5.96946C9.94131 5.32544 9.07193 4.95765 8.16146 4.94416C7.25099 4.93066 6.3711 5.27253 5.70857 5.89719C5.04604 6.52185 4.65303 7.38012 4.61298 8.28981C4.57292 9.1995 4.88897 10.089 5.49403 10.7695L5.63503 10.9195L7.75603 13.0395C7.93729 13.219 8.04306 13.461 8.05171 13.716C8.06037 13.971 7.97123 14.2196 7.80257 14.411C7.6339 14.6025 7.39845 14.7222 7.14441 14.7457C6.89037 14.7692 6.63695 14.6947 6.43603 14.5375L6.34203 14.4545L4.22203 12.3335C3.19063 11.302 2.61121 9.90311 2.61121 8.44446C2.61121 6.98582 3.19063 5.58691 4.22203 4.55546L4.22003 4.55446Z" fill="white"/>
</g>
<defs>
<clipPath id="clip0_2822_3383">
<rect width="24" height="24" fill="white" transform="translate(0 0.333496)"/>
</clipPath>
</defs>
</svg>
