<svg width="20" height="21" viewBox="0 0 20 21" fill="none" xmlns="http://www.w3.org/2000/svg">
<path fill-rule="evenodd" clip-rule="evenodd" d="M14.77 12.8715C14.6267 13.0094 14.4346 13.0847 14.2358 13.0809C14.0371 13.0772 13.8479 12.9947 13.71 12.8515L9.99998 8.91355L6.28998 12.8515C6.22255 12.9259 6.14087 12.9859 6.0498 13.0281C5.95873 13.0703 5.86012 13.0938 5.7598 13.0972C5.65948 13.1006 5.55951 13.0838 5.46579 13.0479C5.37208 13.0119 5.28654 12.9575 5.21424 12.8879C5.14194 12.8183 5.08435 12.7348 5.04488 12.6426C5.00542 12.5503 4.98487 12.451 4.98448 12.3506C4.98408 12.2502 5.00384 12.1508 5.04257 12.0582C5.08131 11.9656 5.13824 11.8817 5.20998 11.8115L9.45998 7.31155C9.52995 7.23896 9.61382 7.18123 9.70661 7.14179C9.79939 7.10236 9.89917 7.08203 9.99998 7.08203C10.1008 7.08203 10.2006 7.10236 10.2934 7.14179C10.3861 7.18123 10.47 7.23896 10.54 7.31155L14.79 11.8115C14.9278 11.9548 15.0031 12.1469 14.9994 12.3457C14.9956 12.5445 14.9131 12.7336 14.77 12.8715Z" fill="#333333"/>
</svg>
