<svg width="21" height="21" viewBox="0 0 21 21" fill="none" xmlns="http://www.w3.org/2000/svg">
<path fill-rule="evenodd" clip-rule="evenodd" d="M6.21451 7.29984C6.35777 7.16201 6.54989 7.08669 6.74865 7.09044C6.94742 7.09419 7.13656 7.1767 7.27451 7.31984L10.9845 11.2578L14.6945 7.31984C14.762 7.24549 14.8436 7.18544 14.9347 7.14324C15.0258 7.10104 15.1244 7.07755 15.2247 7.07416C15.325 7.07077 15.425 7.08755 15.5187 7.12351C15.6124 7.15946 15.698 7.21387 15.7703 7.28349C15.8426 7.35311 15.9001 7.43654 15.9396 7.52883C15.9791 7.62112 15.9996 7.72039 16 7.82076C16.0004 7.92114 15.9807 8.02057 15.9419 8.11316C15.9032 8.20576 15.8463 8.28964 15.7745 8.35984L11.5245 12.8598C11.4546 12.9324 11.3707 12.9902 11.2779 13.0296C11.1851 13.069 11.0853 13.0894 10.9845 13.0894C10.8837 13.0894 10.7839 13.069 10.6911 13.0296C10.5984 12.9902 10.5145 12.9324 10.4445 12.8598L6.19451 8.35984C6.05668 8.21658 5.98137 8.02446 5.98512 7.8257C5.98887 7.62694 6.07138 7.43779 6.21451 7.29984Z" fill="#333333"/>
</svg>
