<svg width="28" height="29" viewBox="0 0 28 29" fill="none" xmlns="http://www.w3.org/2000/svg">
<rect y="0.333496" width="28" height="28" rx="14" fill="#F7931E"/>
<g clip-path="url(#clip0_2797_2778)">
<path d="M14.7578 9.16943L19.7943 17.8929C20.131 18.4762 19.7101 19.2054 19.0365 19.2054H8.96353C8.28995 19.2054 7.86896 18.4762 8.20575 17.8929L13.2422 9.16944C13.579 8.5861 14.421 8.5861 14.7578 9.16943ZM14 16.0833C13.6778 16.0833 13.4167 16.3444 13.4167 16.6666C13.4167 16.9888 13.6778 17.2499 14 17.2499C14.3222 17.2499 14.5834 16.9888 14.5834 16.6666C14.5834 16.3444 14.3222 16.0833 14 16.0833ZM14 11.9999C13.7009 11.9999 13.4543 12.2251 13.4206 12.5152L13.4167 12.5833V14.9166C13.4167 15.2388 13.6778 15.4999 14 15.4999C14.2992 15.4999 14.5457 15.2748 14.5794 14.9846L14.5834 14.9166V12.5833C14.5834 12.2611 14.3222 11.9999 14 11.9999Z" fill="white"/>
</g>
<defs>
<clipPath id="clip0_2797_2778">
<rect width="14" height="14" fill="white" transform="translate(7 7.3335)"/>
</clipPath>
</defs>
</svg>
